<svg xmlns="http://www.w3.org/2000/svg" width="940" height="220" viewBox="0 0 940 220"><defs><linearGradient id="sky" x1="0" y1="0" x2="1" y2="1"><stop offset="0" stop-color="#effbff"/><stop offset=".55" stop-color="#bce9ff"/><stop offset="1" stop-color="#eefaff"/></linearGradient><filter id="s"><feDropShadow dx="0" dy="2" stdDeviation="2" flood-opacity=".25"/></filter></defs><rect width="940" height="220" fill="url(#sky)"/><g transform="translate(65 24)"><circle cx="72" cy="44" r="28" fill="#f1c2b1"/><path d="M40 62 Q75 0 110 62 Q75 50 40 62" fill="#6d3f2f"/><rect x="36" y="73" width="84" height="118" rx="8" fill="#202938"/><polygon points="75,74 98,74 88,140 74,140" fill="#fff"/><path d="M37 104 Q22 88 30 62" stroke="#f1c2b1" stroke-width="15" fill="none" stroke-linecap="round"/><path d="M28 58 L15 42" stroke="#f1c2b1" stroke-width="10" stroke-linecap="round"/></g><g transform="translate(358 18)"><circle cx="20" cy="22" r="15" fill="#1694dc"/><text x="20" y="27" text-anchor="middle" font-family="Arial" font-size="15" font-weight="700" fill="#fff">FM</text><text x="43" y="20" font-family="Arial" font-size="12" fill="#168bd5">care for humanity</text><text x="43" y="45" font-family="Arial" font-size="31" font-weight="700" fill="#168bd5">Fair Medical</text><text x="105" y="93" text-anchor="middle" font-family="Georgia" font-size="22" fill="#333" letter-spacing="3">we send information useful</text><text x="105" y="121" text-anchor="middle" font-family="Georgia" font-size="22" fill="#333" letter-spacing="3">for only members</text><text x="105" y="149" text-anchor="middle" font-family="Georgia" font-size="22" fill="#333" letter-spacing="3">by an email magazine</text><rect x="0" y="164" width="135" height="50" fill="#1a5a9e" stroke="#fff" stroke-width="3" filter="url(#s)"/><text x="68" y="198" text-anchor="middle" font-family="Georgia" font-size="28" fill="#fff" letter-spacing="2">Free</text></g><g transform="translate(708 57)"><circle cx="76" cy="68" r="58" fill="#d5dce5" stroke="#9fb0c4" stroke-width="5"/><circle cx="76" cy="68" r="34" fill="#fbfdff" stroke="#aec0d3" stroke-width="4"/><rect x="83" y="114" width="120" height="22" rx="9" fill="#c6d1de"/><rect x="158" y="98" width="45" height="55" rx="5" fill="#e8edf2" stroke="#a8b6c4"/><circle cx="180" cy="126" r="7" fill="#1e8bd1"/></g><text x="568" y="164" font-family="Arial" font-size="16" fill="#333">New arrivals</text><text x="568" y="187" font-family="Arial" font-size="16" fill="#333">Featured Products</text></svg>
