<svg xmlns="http://www.w3.org/2000/svg" width="720" height="260" viewBox="0 0 720 260"><rect width="720" height="260" fill="#fff"/><g fill="#dce6ee" stroke="#b9c9d5"><rect x="0" y="0" width="230" height="80"/><rect x="245" y="0" width="230" height="80"/><rect x="490" y="0" width="230" height="80"/><rect x="0" y="90" width="230" height="80"/><rect x="245" y="90" width="230" height="80"/><rect x="490" y="90" width="230" height="80"/><rect x="0" y="180" width="230" height="80"/><rect x="245" y="180" width="230" height="80"/><rect x="490" y="180" width="230" height="80"/></g><g fill="#fff"><circle cx="360" cy="40" r="30"/><circle cx="360" cy="130" r="32"/><rect x="25" y="20" width="180" height="40"/><rect x="515" y="20" width="180" height="40"/><rect x="25" y="110" width="180" height="40"/><rect x="515" y="110" width="180" height="40"/><rect x="25" y="200" width="180" height="40"/><rect x="270" y="200" width="180" height="40"/><rect x="515" y="200" width="180" height="40"/></g></svg>
