<svg xmlns="http://www.w3.org/2000/svg" width="720" height="270" viewBox="0 0 720 270"><rect width="720" height="270" fill="#fff"/><g fill="#e6eef5" stroke="#b7c9d8"><rect x="10" y="10" width="210" height="115"/><rect x="255" y="10" width="210" height="115"/><rect x="500" y="10" width="210" height="115"/><rect x="10" y="145" width="210" height="115"/><rect x="255" y="145" width="210" height="115"/><rect x="500" y="145" width="210" height="115"/></g><g fill="#fff" stroke="#9daab8" stroke-width="2"><circle cx="115" cy="68" r="38"/><circle cx="360" cy="68" r="40"/><rect x="545" y="36" width="100" height="62" rx="8"/><rect x="55" y="180" width="120" height="45" rx="5"/><rect x="315" y="168" width="80" height="70" rx="5"/><circle cx="605" cy="204" r="38"/></g><g fill="#168bd5" font-family="Arial" font-size="13" font-weight="700"><text x="115" y="120" text-anchor="middle">MRI apparatus</text><text x="360" y="120" text-anchor="middle">CT apparatus</text><text x="605" y="120" text-anchor="middle">X-Ray TV</text><text x="115" y="250" text-anchor="middle">Diagnostic equipment</text><text x="360" y="250" text-anchor="middle">Endoscope equipment</text><text x="605" y="250" text-anchor="middle">Surgical equipment</text></g></svg>
