<svg xmlns="http://www.w3.org/2000/svg" width="720" height="420" viewBox="0 0 720 420"><defs><linearGradient id="sky" x1="0" y1="0" x2="0" y2="1"><stop offset="0" stop-color="#c9efff"/><stop offset="1" stop-color="#ffffff"/></linearGradient></defs><rect width="720" height="420" fill="url(#sky)"/><polygon points="105,400 250,400 225,60 130,60" fill="#2d8dd6"/><polygon points="470,400 615,400 585,60 490,60" fill="#2584cc"/><rect x="250" y="70" width="240" height="75" fill="#2c94df"/><circle cx="360" cy="205" r="70" fill="none" stroke="#3f5969" stroke-width="18"/><g fill="#fff" opacity=".9"><rect x="145" y="95" width="28" height="35"/><rect x="185" y="95" width="28" height="35"/><rect x="505" y="95" width="28" height="35"/><rect x="545" y="95" width="28" height="35"/><rect x="145" y="160" width="28" height="35"/><rect x="185" y="160" width="28" height="35"/><rect x="505" y="160" width="28" height="35"/><rect x="545" y="160" width="28" height="35"/></g><text x="360" y="35" text-anchor="middle" font-family="Arial" font-size="30" font-weight="700" fill="#1b77b9">Umeda Sky Building Tower East</text></svg>
